<svg width="64" height="64" viewBox="0 0 64 64" fill="none" xmlns="http://www.w3.org/2000/svg">
  <rect width="64" height="64" rx="14" fill="#070B0F"/>
  <rect x="6" y="6" width="52" height="52" rx="10" stroke="#C9854D" stroke-opacity="0.28"/>
  <path d="M17 45V19H30.2C35.7 19 39.1 22.1 39.1 26.8C39.1 30.2 37.3 32.7 34.1 33.8L40 45H33.9L28.8 34.8H23V45H17ZM23 30.1H29.4C31.8 30.1 33.1 29 33.1 26.9C33.1 24.8 31.8 23.7 29.4 23.7H23V30.1Z" fill="#D69A45"/>
  <path d="M42.6 45V19H59V24H48.5V30.4H57.6V35.3H48.5V45H42.6Z" fill="#C9854D"/>
</svg>
